<svg width="68" height="40" viewBox="0 0 68 40" fill="none" xmlns="http://www.w3.org/2000/svg">
<path d="M30 38.4375C12.2109 38.4375 0.201172 23.9355 0.201172 19.5312C0.201172 15.1055 12.2324 0.625 30 0.625C42.8477 0.625 52.5156 7.97266 56.9844 13.7734C54.793 13.3438 52.4082 13.9883 50.9043 16.2012C47.5742 12.1836 39.6895 6.03906 30 6.03906C17.002 6.03906 7.0332 17.1035 7.0332 19.5312C7.0332 22.4531 17.002 33.0234 30 33.0234C35.0488 33.0234 39.5391 31.3691 43.084 29.2852L40.8926 33.1953C40.2695 34.2695 40.0117 35.1504 40.0762 36.8691C37.0039 37.8359 33.6309 38.4375 30 38.4375ZM30.0215 30.2734C24.0488 30.2734 19.2148 25.3965 19.2148 19.4883C19.2148 13.5156 24.0488 8.72461 30.0215 8.72461C35.9941 8.72461 40.8066 13.5371 40.8066 19.4883C40.8066 25.3965 35.9941 30.2734 30.0215 30.2734ZM30 22.8184C31.8262 22.8184 33.3086 21.3359 33.3086 19.5098C33.3086 17.6836 31.8262 16.2012 30 16.2012C28.1738 16.2012 26.7129 17.6836 26.7129 19.5098C26.7129 21.3359 28.1738 22.8184 30 22.8184ZM46.4141 39.5332C44.5234 39.5332 43.2559 38.0723 43.2559 36.3535C43.2559 35.8164 43.4062 35.3008 43.6855 34.7852L52.8164 18.4355C53.418 17.3398 54.4707 16.8027 55.5664 16.8027C56.6406 16.8027 57.6719 17.3184 58.2949 18.4355L67.4258 34.7852C67.7266 35.3008 67.8555 35.8164 67.8555 36.3535C67.8555 38.0723 66.5664 39.5332 64.6758 39.5332H46.4141ZM55.5449 30.9824C56.4902 30.9824 57.1777 30.3164 57.2207 29.4141L57.3926 23.8281C57.4355 22.7324 56.6406 22.002 55.5449 22.002C54.4492 22.002 53.6543 22.7539 53.6973 23.8281L53.8906 29.4141C53.9121 30.3164 54.5996 30.9824 55.5449 30.9824ZM55.5449 36.3535C56.7695 36.3535 57.6719 35.4727 57.6934 34.3125C57.6934 33.1738 56.748 32.293 55.5449 32.293C54.3633 32.293 53.418 33.1523 53.418 34.3125C53.418 35.4727 54.3418 36.3535 55.5449 36.3535Z" fill="#2A4FA7"/>
</svg>
