<svg width="60" height="42" viewBox="0 0 60 42" fill="none" xmlns="http://www.w3.org/2000/svg">
<path d="M47.3594 40.6035L10.127 3.43555C9.43945 2.74805 9.43945 1.56641 10.127 0.878906C10.8359 0.169922 11.9961 0.169922 12.7051 0.878906L49.916 38.0469C50.6035 38.7559 50.625 39.8516 49.916 40.6035C49.207 41.334 48.0684 41.3125 47.3594 40.6035ZM30 2.125C48.0469 2.125 59.7988 16.6055 59.7988 21.0312C59.7988 23.502 56.1465 29.0879 49.7871 33.5566L45.5977 29.3887C50.1523 26.2734 52.9668 22.5781 52.9668 21.0312C52.9668 18.6035 42.9766 7.53906 30 7.53906C28.0664 7.53906 26.1973 7.81836 24.457 8.26953L19.9238 3.73633C22.9961 2.74805 26.3691 2.125 30 2.125ZM30 39.9375C12.2109 39.9375 0.201172 25.4355 0.201172 21.0312C0.201172 18.5391 4.04688 12.8457 10.5996 8.33398L14.8105 12.5664C9.99805 15.7891 7.0332 19.7207 7.0332 21.0312C7.0332 23.9531 17.002 34.5234 30 34.5234C32.084 34.5234 34.1035 34.2227 35.9941 33.707L40.5059 38.2188C37.3047 39.293 33.8027 39.9375 30 39.9375ZM30.0215 10.2676C36.0156 10.2676 40.7852 15.0156 40.7852 21.0098C40.7852 22.084 40.6133 23.1152 40.2695 24.0605L26.9707 10.7832C27.916 10.4395 28.9258 10.2676 30.0215 10.2676ZM30.0215 31.7949C24.0059 31.7949 19.2148 26.875 19.2148 21.0098C19.2148 19.8066 19.4512 18.6465 19.8594 17.6152L33.416 31.1289C32.3633 31.5586 31.2031 31.7949 30.0215 31.7949Z" fill="#2A4FA7"/>
</svg>
