<svg width="60" height="38" viewBox="0 0 60 38" fill="none" xmlns="http://www.w3.org/2000/svg">
<path d="M29.9785 37.6367C12.4473 37.6367 0.609375 23.3281 0.609375 18.9668C0.609375 14.627 12.4688 0.339844 29.9785 0.339844C47.7891 0.339844 59.3906 14.627 59.3906 18.9668C59.3906 23.3281 47.7891 37.6367 29.9785 37.6367ZM30 30.3965C36.3164 30.3965 41.4297 25.2832 41.4297 18.9883C41.4297 12.6719 36.3164 7.55859 30 7.55859C23.6836 7.55859 18.5703 12.6719 18.5703 18.9883C18.5703 25.2832 23.6836 30.3965 30 30.3965ZM30 23.4785C27.5078 23.4785 25.5098 21.4805 25.5098 18.9883C25.5098 16.4961 27.5078 14.498 30 14.498C32.4922 14.498 34.4902 16.4961 34.4902 18.9883C34.4902 21.4805 32.4922 23.4785 30 23.4785Z" fill="#2A4FA7"/>
</svg>
