<svg width="40" height="40" viewBox="0 0 40 40" fill="none" xmlns="http://www.w3.org/2000/svg">
<rect width="40" height="40" rx="20" fill="#2A4FA7"/>
<path d="M12.9688 19.1289V17.1465C12.9688 16.9447 13.0404 16.7721 13.1836 16.6289C13.3268 16.4857 13.4993 16.4141 13.7012 16.4141C13.9095 16.4141 14.0853 16.4857 14.2285 16.6289C14.3717 16.7721 14.4434 16.9447 14.4434 17.1465V19.0703C14.4434 20.1771 14.6712 21.1471 15.127 21.9805C15.5827 22.8138 16.224 23.4616 17.0508 23.9238C17.8776 24.3796 18.8477 24.6074 19.9609 24.6074C21.0742 24.6074 22.041 24.3796 22.8613 23.9238C23.6882 23.4616 24.3294 22.8138 24.7852 21.9805C25.2409 21.1471 25.4688 20.1771 25.4688 19.0703V17.1465C25.4688 16.9447 25.5404 16.7721 25.6836 16.6289C25.8268 16.4857 26.0026 16.4141 26.2109 16.4141C26.4128 16.4141 26.5853 16.4857 26.7285 16.6289C26.8717 16.7721 26.9434 16.9447 26.9434 17.1465V19.1289C26.9434 20.4049 26.6797 21.5378 26.1523 22.5273C25.6315 23.5169 24.9023 24.3112 23.9648 24.9102C23.0273 25.5026 21.9368 25.8509 20.6934 25.9551V28.2305H24.3164C24.5247 28.2305 24.7005 28.3021 24.8438 28.4453C24.987 28.5885 25.0586 28.7643 25.0586 28.9727C25.0586 29.1745 24.987 29.347 24.8438 29.4902C24.7005 29.6335 24.5247 29.7051 24.3164 29.7051H15.5957C15.3874 29.7051 15.2116 29.6335 15.0684 29.4902C14.9251 29.347 14.8535 29.1745 14.8535 28.9727C14.8535 28.7643 14.9251 28.5885 15.0684 28.4453C15.2116 28.3021 15.3874 28.2305 15.5957 28.2305H19.2188V25.9551C17.9753 25.8509 16.8848 25.5026 15.9473 24.9102C15.0098 24.3112 14.2773 23.5169 13.75 22.5273C13.2292 21.5378 12.9688 20.4049 12.9688 19.1289ZM19.9609 22.5078C19.3099 22.5078 18.7402 22.3581 18.252 22.0586C17.7637 21.7591 17.3828 21.3457 17.1094 20.8184C16.8359 20.2845 16.6992 19.6693 16.6992 18.9727V12.4395C16.6992 11.7428 16.8359 11.1309 17.1094 10.6035C17.3828 10.0697 17.7637 9.65299 18.252 9.35352C18.7402 9.05404 19.3099 8.9043 19.9609 8.9043C20.6055 8.9043 21.1719 9.05404 21.6602 9.35352C22.1549 9.65299 22.5358 10.0697 22.8027 10.6035C23.0762 11.1309 23.2129 11.7428 23.2129 12.4395V18.9727C23.2129 19.6693 23.0762 20.2845 22.8027 20.8184C22.5358 21.3457 22.1549 21.7591 21.6602 22.0586C21.1719 22.3581 20.6055 22.5078 19.9609 22.5078Z" fill="white"/>
</svg>
